<svg xmlns="http://www.w3.org/2000/svg" width="256" height="64" viewBox="0 0 64 16" shape-rendering="crispEdges">
  <g transform="translate(0 0)">
    <rect x="4" y="10" width="8" height="3" fill="#2b1d0e"/>
    <rect x="5" y="9" width="6" height="3" fill="#5cc8ff"/>
    <rect x="6" y="10" width="4" height="1" fill="#dff7ff"/>
    <rect x="5" y="3" width="1" height="1" fill="#2b1d0e"/>
    <rect x="10" y="3" width="1" height="1" fill="#2b1d0e"/>
    <rect x="4" y="4" width="8" height="4" fill="#f59e0b"/>
    <rect x="5" y="4" width="1" height="1" fill="#f8b4d9"/>
    <rect x="10" y="4" width="1" height="1" fill="#f8b4d9"/>
    <rect x="6" y="6" width="1" height="1" fill="#2b1d0e"/>
    <rect x="9" y="6" width="1" height="1" fill="#2b1d0e"/>
    <rect x="7" y="7" width="2" height="1" fill="#fff1d6"/>
    <rect x="4" y="8" width="8" height="2" fill="#f59e0b"/>
    <rect x="5" y="9" width="1" height="1" fill="#2b1d0e"/>
    <rect x="10" y="9" width="1" height="1" fill="#2b1d0e"/>
    <rect x="12" y="8" width="1" height="1" fill="#2b1d0e"/>
    <rect x="13" y="7" width="1" height="2" fill="#2b1d0e"/>
  </g>
  <g transform="translate(16 0)">
    <rect x="4" y="10" width="8" height="3" fill="#2b1d0e"/>
    <rect x="5" y="9" width="6" height="3" fill="#5cc8ff"/>
    <rect x="6" y="10" width="4" height="1" fill="#dff7ff"/>
    <rect x="5" y="3" width="1" height="1" fill="#2b1d0e"/>
    <rect x="10" y="3" width="1" height="1" fill="#2b1d0e"/>
    <rect x="4" y="4" width="8" height="4" fill="#f59e0b"/>
    <rect x="5" y="4" width="1" height="1" fill="#f8b4d9"/>
    <rect x="10" y="4" width="1" height="1" fill="#f8b4d9"/>
    <rect x="6" y="6" width="1" height="1" fill="#2b1d0e"/>
    <rect x="9" y="6" width="1" height="1" fill="#2b1d0e"/>
    <rect x="7" y="7" width="2" height="1" fill="#fff1d6"/>
    <rect x="4" y="8" width="8" height="2" fill="#f59e0b"/>
    <rect x="4" y="9" width="1" height="1" fill="#2b1d0e"/>
    <rect x="10" y="8" width="1" height="1" fill="#2b1d0e"/>
    <rect x="12" y="9" width="1" height="1" fill="#2b1d0e"/>
    <rect x="13" y="8" width="1" height="2" fill="#2b1d0e"/>
  </g>
  <g transform="translate(32 0)">
    <rect x="4" y="10" width="8" height="3" fill="#2b1d0e"/>
    <rect x="5" y="9" width="6" height="3" fill="#5cc8ff"/>
    <rect x="6" y="10" width="4" height="1" fill="#dff7ff"/>
    <rect x="5" y="3" width="1" height="1" fill="#2b1d0e"/>
    <rect x="10" y="3" width="1" height="1" fill="#2b1d0e"/>
    <rect x="4" y="4" width="8" height="4" fill="#f59e0b"/>
    <rect x="5" y="4" width="1" height="1" fill="#f8b4d9"/>
    <rect x="10" y="4" width="1" height="1" fill="#f8b4d9"/>
    <rect x="6" y="6" width="1" height="1" fill="#2b1d0e"/>
    <rect x="9" y="6" width="1" height="1" fill="#2b1d0e"/>
    <rect x="7" y="7" width="2" height="1" fill="#fff1d6"/>
    <rect x="4" y="8" width="8" height="2" fill="#f59e0b"/>
    <rect x="5" y="8" width="1" height="1" fill="#2b1d0e"/>
    <rect x="11" y="9" width="1" height="1" fill="#2b1d0e"/>
    <rect x="12" y="8" width="1" height="1" fill="#2b1d0e"/>
    <rect x="13" y="7" width="1" height="2" fill="#2b1d0e"/>
  </g>
  <g transform="translate(48 0)">
    <rect x="4" y="10" width="8" height="3" fill="#2b1d0e"/>
    <rect x="5" y="9" width="6" height="3" fill="#5cc8ff"/>
    <rect x="6" y="10" width="4" height="1" fill="#dff7ff"/>
    <rect x="5" y="3" width="1" height="1" fill="#2b1d0e"/>
    <rect x="10" y="3" width="1" height="1" fill="#2b1d0e"/>
    <rect x="4" y="4" width="8" height="4" fill="#f59e0b"/>
    <rect x="5" y="4" width="1" height="1" fill="#f8b4d9"/>
    <rect x="10" y="4" width="1" height="1" fill="#f8b4d9"/>
    <rect x="6" y="6" width="1" height="1" fill="#2b1d0e"/>
    <rect x="9" y="6" width="1" height="1" fill="#2b1d0e"/>
    <rect x="7" y="7" width="2" height="1" fill="#fff1d6"/>
    <rect x="4" y="8" width="8" height="2" fill="#f59e0b"/>
    <rect x="4" y="9" width="1" height="1" fill="#2b1d0e"/>
    <rect x="11" y="8" width="1" height="1" fill="#2b1d0e"/>
    <rect x="12" y="9" width="1" height="1" fill="#2b1d0e"/>
    <rect x="13" y="8" width="1" height="2" fill="#2b1d0e"/>
  </g>
</svg>
